<?xml version="1.0" standalone="no"?><!DOCTYPE svg PUBLIC "-//W3C//DTD SVG 1.1//EN" "http://www.w3.org/Graphics/SVG/1.1/DTD/svg11.dtd"><svg t="1654584810313" class="icon" viewBox="0 0 1024 1024" version="1.1" xmlns="http://www.w3.org/2000/svg" p-id="2438" xmlns:xlink="http://www.w3.org/1999/xlink" width="200" height="200"><defs><style type="text/css">@font-face { font-family: feedback-iconfont; src: url("//at.alicdn.com/t/font_1031158_u69w8yhxdu.woff2?t=1630033759944") format("woff2"), url("//at.alicdn.com/t/font_1031158_u69w8yhxdu.woff?t=1630033759944") format("woff"), url("//at.alicdn.com/t/font_1031158_u69w8yhxdu.ttf?t=1630033759944") format("truetype"); }
</style></defs><path d="M512 512m-414 0a414 414 0 1 0 828 0 414 414 0 1 0-828 0Z" fill="#F0C48A" p-id="2439"></path><path d="M653.476 538.458h55.482v128.404h-55.482zM484.26 538.458h55.482v128.404H484.26z" fill="#FFFFFF" p-id="2440"></path><path d="M512 229.45l-215.41 156.506v64.836h430.82v-64.836z" fill="#A4CFF2" p-id="2441"></path><path d="M512 280.222l-165.998 120.606v49.964H678v-49.964z" fill="#D3E6F8" p-id="2442"></path><path d="M639.834 373.098L678 400.828v49.964h-38.166z" fill="#A4CFF2" p-id="2443"></path><path d="M678 450.792h49.41v-64.836L678 350.056z" fill="#7BABF1" p-id="2444"></path><path d="M370.928 538.458h-56.29a18.048 18.048 0 0 1-18.048-18.048v-26.206h92.386v26.206a18.048 18.048 0 0 1-18.048 18.048zM388.976 711.116h-92.386v-26.206a18.048 18.048 0 0 1 18.048-18.048h56.29a18.048 18.048 0 0 1 18.048 18.048v26.206zM540.144 538.458h-56.29a18.048 18.048 0 0 1-18.048-18.048v-26.206h92.386v26.206c0.002 9.968-8.08 18.048-18.048 18.048zM558.194 711.116h-92.386v-26.206a18.048 18.048 0 0 1 18.048-18.048h56.29a18.048 18.048 0 0 1 18.048 18.048v26.206zM709.362 538.458h-56.29a18.048 18.048 0 0 1-18.048-18.048v-26.206h92.386v26.206a18.048 18.048 0 0 1-18.048 18.048zM727.41 711.116h-92.386v-26.206a18.048 18.048 0 0 1 18.048-18.048h56.29a18.048 18.048 0 0 1 18.048 18.048v26.206zM315.042 538.458h55.482v128.404h-55.482z" fill="#FFFFFF" p-id="2445"></path><path d="M346.002 538.458h24.524v128.404h-24.524zM515.218 538.458h24.524v128.404h-24.524zM684.434 538.458h24.524v128.404h-24.524z" fill="#D3E6F8" p-id="2446"></path><path d="M262.066 450.772h499.868v43.434H262.066zM262.066 711.116h499.868v43.434H262.066z" fill="#FD919E" p-id="2447"></path><path d="M708.958 450.772h52.976v43.434h-52.976zM708.958 711.116h52.976v43.434h-52.976z" fill="#E8677D" p-id="2448"></path><path d="M512 379.83m-32.39 0a32.39 32.39 0 1 0 64.78 0 32.39 32.39 0 1 0-64.78 0Z" fill="#FD919E" p-id="2449"></path><path d="M761.934 502.92H262.066a8.714 8.714 0 0 1-8.714-8.714v-43.432a8.714 8.714 0 0 1 8.714-8.714h499.868a8.714 8.714 0 0 1 8.714 8.714v43.432a8.714 8.714 0 0 1-8.714 8.714z m-491.152-17.428h482.44v-26.004h-482.44v26.004zM761.934 763.264H262.066a8.714 8.714 0 0 1-8.714-8.714v-43.434a8.714 8.714 0 0 1 8.714-8.714h499.868a8.714 8.714 0 0 1 8.714 8.714v43.434a8.714 8.714 0 0 1-8.714 8.714z m-491.152-17.43h482.44v-26.004h-482.44v26.004z" fill="#4C4372" p-id="2450"></path><path d="M727.41 459.506h-430.82a8.714 8.714 0 0 1-8.714-8.714v-64.838c0-2.79 1.334-5.412 3.592-7.05L506.878 222.4a8.714 8.714 0 0 1 10.246 0l215.408 156.504a8.72 8.72 0 0 1 3.592 7.05v64.838a8.714 8.714 0 0 1-8.714 8.714z m-422.106-17.428h413.39v-51.684L512 240.222l-206.696 150.174v51.682z" fill="#4C4372" p-id="2451"></path><path d="M678 459.506H346.002a8.714 8.714 0 0 1-8.714-8.714v-49.964c0-2.79 1.334-5.412 3.592-7.05l165.998-120.604a8.72 8.72 0 0 1 10.246 0l165.998 120.604a8.72 8.72 0 0 1 3.592 7.05v49.964a8.714 8.714 0 0 1-8.714 8.714z m-323.284-17.428h314.57v-36.81L512 290.994l-157.284 114.276v36.808z" fill="#4C4372" p-id="2452"></path><path d="M512 420.932c-22.664 0-41.104-18.438-41.104-41.102s18.44-41.104 41.104-41.104 41.104 18.438 41.104 41.104c0 22.664-18.44 41.102-41.104 41.102z m0-64.776c-13.054 0-23.676 10.62-23.676 23.676 0 13.052 10.62 23.674 23.676 23.674s23.676-10.62 23.676-23.674c0-13.056-10.622-23.676-23.676-23.676zM370.524 675.576h-55.482a8.714 8.714 0 0 1-8.714-8.714v-128.404a8.714 8.714 0 0 1 8.714-8.714h55.482a8.714 8.714 0 0 1 8.714 8.714v128.404a8.712 8.712 0 0 1-8.714 8.714z m-46.768-17.428h38.054v-110.976h-38.054v110.976zM539.742 675.576H484.26a8.714 8.714 0 0 1-8.714-8.714v-128.404a8.714 8.714 0 0 1 8.714-8.714h55.482a8.714 8.714 0 0 1 8.714 8.714v128.404a8.714 8.714 0 0 1-8.714 8.714z m-46.77-17.428h38.054v-110.976h-38.054v110.976zM708.958 675.576h-55.482a8.714 8.714 0 0 1-8.714-8.714v-128.404a8.714 8.714 0 0 1 8.714-8.714h55.482a8.714 8.714 0 0 1 8.714 8.714v128.404a8.712 8.712 0 0 1-8.714 8.714z m-46.768-17.428h38.054v-110.976h-38.054v110.976z" fill="#4C4372" p-id="2453"></path><path d="M358.262 538.458h12.666a18.048 18.048 0 0 0 18.048-18.048v-26.206h-30.714v44.254zM527.48 538.458h12.664a18.048 18.048 0 0 0 18.048-18.048v-26.206h-30.714l0.002 44.254zM696.698 538.458h12.664a18.048 18.048 0 0 0 18.048-18.048v-26.206h-30.714v44.254zM358.262 666.862h12.666a18.048 18.048 0 0 1 18.048 18.048v26.206h-30.714v-44.254zM527.48 666.862h12.664a18.048 18.048 0 0 1 18.048 18.048v26.206h-30.714l0.002-44.254zM696.698 666.862h12.664a18.048 18.048 0 0 1 18.048 18.048v26.206h-30.714v-44.254z" fill="#D3E6F8" p-id="2454"></path><path d="M370.928 547.172h-56.29c-14.758 0-26.764-12.006-26.764-26.764v-26.206a8.714 8.714 0 0 1 8.714-8.714h92.386a8.714 8.714 0 0 1 8.714 8.714v26.206c0.002 14.76-12.004 26.764-26.76 26.764z m-65.624-44.252v17.492a9.344 9.344 0 0 0 9.334 9.334h56.29a9.346 9.346 0 0 0 9.334-9.334v-17.492h-74.958zM540.144 547.172h-56.29c-14.756 0-26.762-12.006-26.762-26.764v-26.206a8.714 8.714 0 0 1 8.714-8.714h92.384a8.714 8.714 0 0 1 8.714 8.714v26.206c0.004 14.76-12.002 26.764-26.76 26.764z m-65.622-44.252v17.492a9.344 9.344 0 0 0 9.334 9.334h56.29a9.346 9.346 0 0 0 9.334-9.334v-17.492h-74.958z" fill="#4C4372" p-id="2455"></path><path d="M709.362 547.172h-56.29c-14.756 0-26.762-12.006-26.762-26.764v-26.206a8.714 8.714 0 0 1 8.714-8.714h92.384a8.714 8.714 0 0 1 8.714 8.714v26.206c0.002 14.76-12.004 26.764-26.76 26.764z m-65.624-44.252v17.492a9.344 9.344 0 0 0 9.334 9.334h56.29a9.346 9.346 0 0 0 9.334-9.334v-17.492h-74.958z" fill="#4C4372" p-id="2456"></path><path d="M388.976 719.83h-92.386a8.714 8.714 0 0 1-8.714-8.714v-26.206c0-14.756 12.006-26.762 26.764-26.762h56.29c14.756 0 26.762 12.006 26.762 26.762v26.206a8.718 8.718 0 0 1-8.716 8.714z m-83.672-17.43h74.958v-17.492a9.346 9.346 0 0 0-9.334-9.334h-56.29a9.344 9.344 0 0 0-9.334 9.334v17.492z" fill="#4C4372" p-id="2457"></path><path d="M558.194 719.83h-92.384a8.714 8.714 0 0 1-8.714-8.714v-26.206c0-14.756 12.006-26.762 26.762-26.762h56.29c14.756 0 26.762 12.006 26.762 26.762v26.206a8.718 8.718 0 0 1-8.716 8.714z m-83.672-17.43h74.956v-17.492a9.346 9.346 0 0 0-9.334-9.334h-56.29a9.346 9.346 0 0 0-9.334 9.334v17.492h0.002z" fill="#4C4372" p-id="2458"></path><path d="M727.41 719.83h-92.384a8.714 8.714 0 0 1-8.714-8.714v-26.206c0-14.756 12.006-26.762 26.762-26.762h56.29c14.756 0 26.762 12.006 26.762 26.762v26.206a8.718 8.718 0 0 1-8.716 8.714z m-83.672-17.43h74.956v-17.492a9.346 9.346 0 0 0-9.334-9.334h-56.29a9.346 9.346 0 0 0-9.334 9.334l0.002 17.492z" fill="#4C4372" p-id="2459"></path></svg>