<svg t="1665836100020" class="icon" viewBox="0 0 1024 1024" version="1.1" xmlns="http://www.w3.org/2000/svg" p-id="1015" width="128" height="128"><path d="M393.846154 0h512a78.769231 78.769231 0 0 1 78.769231 78.769231v866.461538a78.769231 78.769231 0 0 1-78.769231 78.769231H393.846154a78.769231 78.769231 0 0 1-78.769231-78.769231V78.769231a78.769231 78.769231 0 0 1 78.769231-78.769231z" fill="#0092FF" p-id="1016"></path><path d="M79.556923 568.201846l236.307692-132.923077a78.769231 78.769231 0 0 1 77.193847 0l236.307692 132.923077A78.769231 78.769231 0 0 1 669.538462 636.849231V945.230769a78.769231 78.769231 0 0 1-78.769231 78.769231H118.153846a78.769231 78.769231 0 0 1-78.769231-78.769231v-308.381538a78.769231 78.769231 0 0 1 40.172308-68.647385z" fill="#67EAFF" p-id="1017"></path><path d="M708.923077 315.076923m39.384615 0l78.769231 0q39.384615 0 39.384615 39.384615l0 0q0 39.384615-39.384615 39.384616l-78.769231 0q-39.384615 0-39.384615-39.384616l0 0q0-39.384615 39.384615-39.384615Z" fill="#FFFFFF" p-id="1018"></path><path d="M708.923077 118.153846m39.384615 0l78.769231 0q39.384615 0 39.384615 39.384616l0 0q0 39.384615-39.384615 39.384615l-78.769231 0q-39.384615 0-39.384615-39.384615l0 0q0-39.384615 39.384615-39.384616Z" fill="#FFFFFF" p-id="1019"></path><path d="M433.230769 118.153846m39.384616 0l78.76923 0q39.384615 0 39.384616 39.384616l0 0q0 39.384615-39.384616 39.384615l-78.76923 0q-39.384615 0-39.384616-39.384615l0 0q0-39.384615 39.384616-39.384616Z" fill="#FFFFFF" p-id="1020"></path><path d="M433.230769 315.076923m39.384616 0l78.76923 0q39.384615 0 39.384616 39.384615l0 0q0 39.384615-39.384616 39.384616l-78.76923 0q-39.384615 0-39.384616-39.384616l0 0q0-39.384615 39.384616-39.384615Z" fill="#FFFFFF" p-id="1021"></path><path d="M315.076923 748.307692m39.384615 0l0 0q39.384615 0 39.384616 39.384616l0 157.538461q0 39.384615-39.384616 39.384616l0 0q-39.384615 0-39.384615-39.384616l0-157.538461q0-39.384615 39.384615-39.384616Z" fill="#FFFFFF" p-id="1022"></path><path d="M708.923077 512m39.384615 0l78.769231 0q39.384615 0 39.384615 39.384615l0 0q0 39.384615-39.384615 39.384616l-78.769231 0q-39.384615 0-39.384615-39.384616l0 0q0-39.384615 39.384615-39.384615Z" fill="#FFFFFF" p-id="1023"></path><path d="M708.923077 708.923077m39.384615 0l78.769231 0q39.384615 0 39.384615 39.384615l0 0q0 39.384615-39.384615 39.384616l-78.769231 0q-39.384615 0-39.384615-39.384616l0 0q0-39.384615 39.384615-39.384615Z" fill="#FFFFFF" p-id="1024"></path></svg>