<?xml version="1.0" standalone="no"?><!DOCTYPE svg PUBLIC "-//W3C//DTD SVG 1.1//EN" "http://www.w3.org/Graphics/SVG/1.1/DTD/svg11.dtd"><svg t="1665565571925" class="icon" viewBox="0 0 1024 1024" version="1.1" xmlns="http://www.w3.org/2000/svg" p-id="2806" xmlns:xlink="http://www.w3.org/1999/xlink" width="200" height="200"><path d="M883.2 358.4l-352-256c-12.8-9.6-25.6-9.6-38.4 0l-352 256c-12.8 9.6-16 32-6.4 44.8 9.6 12.8 28.8 16 44.8 6.4L512 166.4l332.8 243.2c6.4 3.2 12.8 6.4 19.2 6.4 9.6 0 19.2-3.2 25.6-12.8 9.6-16 6.4-35.2-6.4-44.8z" p-id="2807"></path><path d="M352 608c-19.2 0-32 12.8-32 32s12.8 32 32 32h128v96c0 19.2 12.8 32 32 32s32-12.8 32-32v-96h128c19.2 0 32-12.8 32-32s-12.8-32-32-32h-128v-64h128c19.2 0 32-12.8 32-32s-12.8-32-32-32h-115.2l73.6-73.6c12.8-12.8 12.8-32 0-44.8s-32-12.8-44.8 0L512 435.2l-73.6-73.6c-12.8-12.8-32-12.8-44.8 0s-12.8 32 0 44.8l73.6 73.6H352c-19.2 0-32 12.8-32 32s12.8 32 32 32h128v64h-128z" p-id="2808"></path><path d="M800 480c-19.2 0-32 12.8-32 32v352H256V512c0-19.2-12.8-32-32-32s-32 12.8-32 32v352c0 35.2 25.6 64 57.6 64h524.8c32 0 57.6-28.8 57.6-64V512c0-19.2-12.8-32-32-32z" p-id="2809"></path></svg>