<?xml version="1.0" standalone="no"?><!DOCTYPE svg PUBLIC "-//W3C//DTD SVG 1.1//EN" "http://www.w3.org/Graphics/SVG/1.1/DTD/svg11.dtd"><svg t="1665845335239" class="icon" viewBox="0 0 1024 1024" version="1.1" xmlns="http://www.w3.org/2000/svg" p-id="3744" xmlns:xlink="http://www.w3.org/1999/xlink" width="128" height="128"><path d="M195.468516 376.736946h632.91807a22.604217 22.604217 0 1 1 0 45.208434H195.468516a22.604217 22.604217 0 0 1 0-45.208434z m56.510542-22.604216V195.468516A22.604217 22.604217 0 0 1 275.307769 172.864299h474.108957a22.604217 22.604217 0 0 1 22.604216 22.604217v158.229517z" fill="#D84D32" p-id="3745"></path><path d="M240.676949 444.1149a293.854818 293.854818 0 1 0 542.646102 0z m395.718693 45.208434a33.906325 33.906325 0 1 1-33.906325 33.906325 33.906325 33.906325 0 0 1 33.906325-33.906325z m-271.250602 0a33.906325 33.906325 0 1 1-33.906325 33.906325 33.906325 33.906325 0 0 1 33.906325-33.906325z m146.927409 56.510542A33.906325 33.906325 0 1 1 478.166124 579.595302a33.906325 33.906325 0 0 1 33.906325-33.906325z m-155.041743 142.870242a11.302108 11.302108 0 0 1 8.549031-18.54705h292.840526a11.302108 11.302108 0 0 1 8.69393 18.54705 202.858356 202.858356 0 0 1-310.228386 0z" fill="#3CA3A9" p-id="3746"></path></svg>